<svg width="165" height="37" viewBox="0 0 165 37" fill="none" xmlns="http://www.w3.org/2000/svg">
<path fill-rule="evenodd" clip-rule="evenodd" d="M12.1497 3.81105C12.2067 4.95909 11.9788 6.16454 11.3522 7.08297C11.1812 7.36998 11.3522 7.48479 11.5801 7.42738C11.8079 7.36998 12.0357 7.25518 12.5485 7.08297C16.5933 5.59052 21.7776 5.87752 25.4237 7.8866C26.2213 8.34582 26.8479 8.74763 27.2468 9.03464C27.6455 9.26425 28.0443 9.09204 27.6455 8.57542C26.734 7.36998 23.6577 4.38508 20.4673 2.77781C17.3339 1.11316 13.8588 0.137322 10.3837 0.0225184C10.2127 0.0225184 10.1558 0.194725 10.2697 0.309529C10.6685 0.711343 11.9788 1.74458 12.1497 3.81105ZM28.614 3.52414C27.7025 4.15556 26.5062 4.55737 25.4238 4.44257C25.0819 4.44257 25.0819 4.67218 25.2528 4.78698C25.4238 4.90178 25.6515 5.13139 26.0504 5.4184C29.3546 8.2311 31.6904 12.8807 31.8044 17.071C31.8044 17.9895 31.7474 18.7357 31.7474 19.1949C31.7474 19.6541 32.0892 19.8837 32.3171 19.3097C32.9437 17.932 33.9122 13.7417 33.7414 10.1828C33.5704 6.68125 32.6589 3.17972 31.0068 0.0800114C30.9497 -0.0347927 30.722 -0.0347927 30.6649 0.137413C30.4941 0.711434 30.3231 2.31869 28.614 3.52414ZM37.1025 17.7023C36.0771 17.1857 35.1655 16.382 34.7097 15.3488C34.5958 15.0618 34.368 15.1192 34.311 15.4063C34.2541 15.6358 34.2541 15.9229 34.1401 16.382C33.3995 20.6872 30.551 25.0497 27.0189 27.231C26.2213 27.7477 25.5376 28.0346 25.1388 28.2643C24.7401 28.4939 24.6831 28.8957 25.3097 28.8383C26.791 28.6661 30.8928 27.4607 33.9122 25.509C36.8746 23.6147 39.3813 21.089 41.2613 18.1041C41.3183 17.9893 41.2043 17.8171 41.0904 17.8171C40.4637 17.9893 38.9825 18.6207 37.1025 17.7023ZM29.1268 32.2826C29.0698 31.1345 29.2977 29.9292 29.9243 29.0107C30.0953 28.7237 29.9243 28.6089 29.6964 28.6663C29.4687 28.7237 29.2408 28.8385 28.728 29.0107C24.6832 30.5032 19.4989 30.2162 15.8529 28.2071C15.0552 27.7478 14.4286 27.3461 14.0297 27.059C13.631 26.8294 13.2322 27.0016 13.631 27.5182C14.5425 28.7237 17.6189 31.7086 20.8092 33.3159C23.8855 34.9231 27.3607 35.8989 30.8928 36.0138C31.0638 36.0138 31.1207 35.8416 31.0068 35.7268C30.608 35.3249 29.2977 34.3491 29.1268 32.2826ZM12.6624 32.5696C13.574 31.9382 14.7703 31.5364 15.8528 31.6511C16.1946 31.6511 16.1946 31.4216 16.0236 31.3068C15.8528 31.192 15.6249 30.9624 15.2261 30.6754C11.9218 27.8627 9.58608 23.2131 9.47209 19.0228C9.47209 18.1043 9.52904 17.3581 9.52904 16.8988C9.52904 16.4397 9.18726 16.2101 8.95938 16.7841C8.33271 18.1617 7.36423 22.3521 7.53513 25.911C7.70604 29.4125 8.61756 32.914 10.2697 36.0138C10.3267 36.1285 10.5546 36.1285 10.6115 35.9563C10.7254 35.3823 10.9533 33.7751 12.6624 32.5696ZM4.17395 18.3338C5.19941 18.8504 6.11093 19.654 6.56669 20.6873C6.68063 20.9743 6.90851 20.9169 6.96548 20.6299C7.02244 20.4003 7.02245 20.1133 7.13639 19.654C7.87699 15.3489 10.7255 10.9864 14.2576 8.80509C15.0552 8.28847 15.7388 8.00146 16.1377 7.77185C16.5364 7.54224 16.5933 7.14043 15.9667 7.19783C14.4855 7.37003 10.3837 8.57547 7.36427 10.5271C4.4588 12.4214 1.89516 15.0045 0.0151532 17.9894C-0.0418167 18.1042 0.0721231 18.2764 0.186062 18.2764C0.755761 18.1042 2.29395 17.4154 4.17395 18.3338Z" fill="#3B82F6"/>
<path fill-rule="evenodd" clip-rule="evenodd" d="M159.53 13.9714V17.2434H160.556C161.012 17.2434 161.411 17.0711 161.696 16.7267C162.038 16.3823 162.152 16.0379 162.152 15.5787C162.152 15.062 161.981 14.6602 161.639 14.3732C161.297 14.0862 160.784 13.9714 160.101 13.9714H159.53ZM156.854 11.7327H161.126C162.266 11.7327 163.234 12.0771 163.918 12.766C164.601 13.4548 165 14.3158 165 15.4639C165 16.2101 164.829 16.8989 164.487 17.5304C164.146 18.1617 163.633 18.6784 162.949 18.9654C162.266 19.3098 161.639 19.4246 161.183 19.482L159.645 19.5395V24.4186H156.967V11.7327H156.854ZM144.491 11.7327H147.169V19.4246C147.169 20.1134 147.339 20.7448 147.738 21.1467C148.137 21.6059 148.65 21.7781 149.276 21.7781C150.017 21.7781 150.587 21.5485 150.985 21.1467C151.384 20.6874 151.612 20.1134 151.612 19.3098V11.7327H154.29V19.8838C154.29 20.5727 154.118 21.3189 153.72 22.1225C153.321 22.8688 152.809 23.5001 152.011 23.902C151.27 24.3038 150.358 24.5334 149.448 24.5334C147.738 24.5334 146.485 24.0741 145.687 23.0984C144.89 22.1225 144.491 21.1467 144.491 20.0561V11.7327ZM136.173 14.0862C135.148 14.0862 134.293 14.4306 133.609 15.1768C132.983 15.923 132.641 16.8988 132.641 18.1043C132.641 19.2523 132.983 20.1708 133.609 20.917C134.236 21.6632 135.091 22.0076 136.117 22.0076C137.141 22.0076 137.997 21.6632 138.68 20.917C139.306 20.1708 139.648 19.2523 139.648 18.0469C139.648 16.8988 139.306 15.923 138.68 15.2342C138.053 14.5454 137.199 14.1435 136.173 14.0862ZM129.849 18.047C129.849 16.1527 130.476 14.6603 131.673 13.3974C132.869 12.192 134.351 11.5606 136.002 11.5606C137.882 11.5606 139.42 12.192 140.617 13.3974C141.813 14.6029 142.44 16.1527 142.44 18.047C142.44 19.8839 141.813 21.4337 140.617 22.6392C139.42 23.8447 137.882 24.476 136.059 24.476C134.236 24.476 132.755 23.8447 131.559 22.6392C130.42 21.4337 129.849 19.8839 129.849 18.047ZM122.387 13.9714V17.2434H122.956C124.381 17.2434 125.121 16.6693 125.121 15.5213C125.121 15.062 124.95 14.6602 124.551 14.3732C124.153 14.0862 123.64 13.9714 123.014 13.9714H122.387ZM119.652 11.7327H123.81C125.064 11.7327 126.033 12.0771 126.773 12.7086C127.514 13.3974 127.855 14.2584 127.855 15.4064C127.855 16.0379 127.685 16.7268 127.343 17.4155C127.001 18.1044 126.375 18.6784 125.463 19.0802L128.995 24.3612H125.919L122.671 19.482H122.387V24.3612H119.652V11.7327ZM116.632 14.4306L114.866 16.0952C114.468 15.4638 114.012 14.9472 113.499 14.6601C112.93 14.3157 112.36 14.201 111.79 14.201C110.821 14.201 109.967 14.6027 109.226 15.3489C108.486 16.0952 108.144 16.9562 108.144 17.9895C108.144 19.0801 108.486 19.9985 109.226 20.7447C109.967 21.4909 110.821 21.8928 111.847 21.8928C112.417 21.8928 112.93 21.7779 113.443 21.4909C113.955 21.204 114.353 20.6873 114.696 19.8837H111.733V17.4154H117.373V19.0227C117.373 19.8837 117.089 20.7447 116.518 21.7206C115.949 22.6964 115.209 23.3853 114.239 23.8445C113.329 24.3036 112.36 24.5333 111.391 24.5333C109.683 24.5333 108.201 23.9019 107.005 22.639C105.808 21.3762 105.239 19.8263 105.239 17.932C105.239 16.1526 105.865 14.6601 107.061 13.3972C108.258 12.1344 109.739 11.503 111.505 11.503C113.727 11.5604 115.436 12.5363 116.632 14.4306ZM97.548 13.9714V17.2434H98.1175C99.5412 17.2434 100.282 16.6693 100.282 15.5213C100.282 15.062 100.112 14.6602 99.7128 14.3732C99.314 14.0862 98.801 13.9714 98.174 13.9714H97.548ZM94.8703 11.7327H99.0292C100.282 11.7327 101.251 12.0771 101.992 12.7086C102.732 13.3974 103.074 14.2584 103.074 15.4064C103.074 16.0379 102.902 16.7268 102.561 17.4155C102.219 18.1044 101.593 18.6784 100.681 19.0802L104.213 24.3612H101.136L97.8893 19.482H97.6045V24.3612H94.9268L94.8703 11.7327ZM87.0652 15.8657L85.584 19.5968H88.5465L87.0652 15.8657ZM85.9828 11.7327H88.0907L93.218 24.3612H90.4834L89.458 21.8355H84.6725L83.704 24.3038H81.0264L85.9828 11.7327ZM73.5634 11.7327H76.2409V21.6059H79.8871V24.3038H73.5064V11.7327H73.5634ZM65.1888 14.0862C64.1633 14.0862 63.3088 14.4306 62.6251 15.1768C61.9985 15.923 61.6566 16.8988 61.6566 18.1043C61.6566 19.2523 61.9985 20.1708 62.6251 20.917C63.2518 21.6632 64.1064 22.0076 65.1318 22.0076C66.1573 22.0076 67.0119 21.6632 67.6954 20.917C68.3222 20.1708 68.6639 19.2523 68.6639 18.0469C68.6639 16.8988 68.3222 15.923 67.6954 15.2342C67.1258 14.488 66.2713 14.1435 65.1888 14.0862ZM58.8651 18.047C58.8651 16.1527 59.4918 14.6603 60.6882 13.3974C61.8845 12.192 63.3657 11.5606 65.0179 11.5606C66.8979 11.5606 68.436 12.192 69.6324 13.3974C70.8288 14.6029 71.4555 16.1527 71.4555 18.047C71.4555 19.8839 70.8288 21.4337 69.6324 22.6392C68.436 23.8447 66.8979 24.476 65.0749 24.476C63.2518 24.476 61.7706 23.8447 60.5742 22.6392C59.4918 21.4337 58.8651 19.8839 58.8651 18.047ZM57.2131 12.8234L55.5609 14.6603C54.6494 14.1436 54.0227 13.8566 53.624 13.8566C53.339 13.8566 53.0542 13.9715 52.8263 14.2011C52.5984 14.4307 52.4845 14.7177 52.4845 15.0047C52.4845 15.6361 53.0542 16.1527 54.1367 16.612C54.9343 16.9563 55.5609 17.3008 56.0167 17.5878C56.4155 17.8748 56.8142 18.2767 57.0991 18.7933C57.3839 19.3099 57.5548 19.8265 57.5548 20.4579C57.5548 21.5486 57.0991 22.467 56.2446 23.2706C55.39 24.0742 54.3646 24.476 53.1682 24.476C51.8579 24.476 50.6046 23.8447 49.2942 22.6392L51.0603 20.5727C51.8579 21.3764 52.5984 21.8356 53.2821 21.8356C53.624 21.8356 53.9088 21.6634 54.1937 21.3764C54.4785 21.0894 54.6494 20.8024 54.6494 20.4579C54.6494 19.8265 53.9658 19.2524 52.5985 18.7358C51.8009 18.4488 51.2312 18.1618 50.8894 17.9322C50.5475 17.7026 50.2627 17.3008 50.0348 16.8416C49.8069 16.3823 49.693 15.8657 49.693 15.3491C49.693 14.2011 50.0348 13.34 50.7754 12.5938C51.516 11.905 52.4276 11.5606 53.624 11.5606C55.1051 11.5606 56.2446 11.9624 57.2131 12.8234Z" fill="#3B82F6"/>
</svg>
