<svg width="42" height="37" viewBox="0 0 42 37" fill="none" xmlns="http://www.w3.org/2000/svg">
<path fill-rule="evenodd" clip-rule="evenodd" d="M12.1497 3.81105C12.2067 4.95909 11.9788 6.16454 11.3522 7.08297C11.1812 7.36998 11.3522 7.48479 11.5801 7.42738C11.8079 7.36998 12.0357 7.25518 12.5485 7.08297C16.5933 5.59052 21.7776 5.87752 25.4237 7.8866C26.2213 8.34582 26.8479 8.74763 27.2468 9.03464C27.6455 9.26425 28.0443 9.09204 27.6455 8.57542C26.734 7.36998 23.6577 4.38508 20.4673 2.77781C17.3339 1.11316 13.8588 0.137322 10.3837 0.0225184C10.2127 0.0225184 10.1558 0.194725 10.2697 0.309529C10.6685 0.711343 11.9788 1.74458 12.1497 3.81105ZM28.614 3.52414C27.7025 4.15556 26.5062 4.55737 25.4238 4.44257C25.0819 4.44257 25.0819 4.67218 25.2528 4.78698C25.4238 4.90178 25.6515 5.13139 26.0504 5.4184C29.3546 8.2311 31.6904 12.8807 31.8044 17.071C31.8044 17.9895 31.7474 18.7357 31.7474 19.1949C31.7474 19.6541 32.0892 19.8837 32.3171 19.3097C32.9437 17.932 33.9122 13.7417 33.7414 10.1828C33.5704 6.68125 32.6589 3.17972 31.0068 0.0800114C30.9497 -0.0347927 30.722 -0.0347927 30.6649 0.137413C30.4941 0.711434 30.3231 2.31869 28.614 3.52414ZM37.1025 17.7023C36.0771 17.1857 35.1655 16.382 34.7097 15.3488C34.5958 15.0618 34.368 15.1192 34.311 15.4063C34.2541 15.6358 34.2541 15.9229 34.1401 16.382C33.3995 20.6872 30.551 25.0497 27.0189 27.231C26.2213 27.7477 25.5376 28.0346 25.1388 28.2643C24.7401 28.4939 24.6831 28.8957 25.3097 28.8383C26.791 28.6661 30.8928 27.4607 33.9122 25.509C36.8746 23.6147 39.3813 21.089 41.2613 18.1041C41.3183 17.9893 41.2043 17.8171 41.0904 17.8171C40.4637 17.9893 38.9825 18.6207 37.1025 17.7023ZM29.1268 32.2826C29.0698 31.1345 29.2977 29.9292 29.9243 29.0107C30.0953 28.7237 29.9243 28.6089 29.6964 28.6663C29.4687 28.7237 29.2408 28.8385 28.728 29.0107C24.6832 30.5032 19.4989 30.2162 15.8529 28.2071C15.0552 27.7478 14.4286 27.3461 14.0297 27.059C13.631 26.8294 13.2322 27.0016 13.631 27.5182C14.5425 28.7237 17.6189 31.7086 20.8092 33.3159C23.8855 34.9231 27.3607 35.8989 30.8928 36.0138C31.0638 36.0138 31.1207 35.8416 31.0068 35.7268C30.608 35.3249 29.2977 34.3491 29.1268 32.2826ZM12.6624 32.5696C13.574 31.9382 14.7703 31.5364 15.8528 31.6511C16.1946 31.6511 16.1946 31.4216 16.0236 31.3068C15.8528 31.192 15.6249 30.9624 15.2261 30.6754C11.9218 27.8627 9.58608 23.2131 9.47209 19.0228C9.47209 18.1043 9.52904 17.3581 9.52904 16.8988C9.52904 16.4397 9.18726 16.2101 8.95938 16.7841C8.33271 18.1617 7.36423 22.3521 7.53513 25.911C7.70604 29.4125 8.61756 32.914 10.2697 36.0138C10.3267 36.1285 10.5546 36.1285 10.6115 35.9563C10.7254 35.3823 10.9533 33.7751 12.6624 32.5696ZM4.17395 18.3338C5.19941 18.8504 6.11093 19.654 6.56669 20.6873C6.68063 20.9743 6.90851 20.9169 6.96548 20.6299C7.02244 20.4003 7.02245 20.1133 7.13639 19.654C7.87699 15.3489 10.7255 10.9864 14.2576 8.80509C15.0552 8.28847 15.7388 8.00146 16.1377 7.77185C16.5364 7.54224 16.5933 7.14043 15.9667 7.19783C14.4855 7.37003 10.3837 8.57547 7.36427 10.5271C4.4588 12.4214 1.89516 15.0045 0.0151532 17.9894C-0.0418167 18.1042 0.0721231 18.2764 0.186062 18.2764C0.755761 18.1042 2.29395 17.4154 4.17395 18.3338Z" fill="#3B82F6"/>
</svg>
